<svg xmlns="http://www.w3.org/2000/svg" width="227.7" height="75" viewBox="0 0 227.7 75"><title>logo</title><path d="M1.15,40.65c3.81,0,4.91-1.23,4.91-6.26V9.7c0-5-1.11-6.26-4.91-6.26V3.07H22.83C35.11,3.07,40,7.25,40,13.2c0,8.17-9.15,9.33-16.33,9.64v0.25c14.92,0.06,13,3.19,15.78,12.22,1.17,3.81,2.21,5.34,5.9,5.34V41H30.38A26.15,26.15,0,0,1,28,33.9C26,24.81,26,23.15,19.88,23.15H16.69V34.39c0,5,1.11,6.26,4.91,6.26V41H1.15V40.65m20-17.87c6.08,0,7.92-5,7.92-9.58s-1.9-9.7-8.41-9.7H16.69V22.78h4.42Z" transform="translate(-1.15)" style="fill:#1b3f1f"/><path d="M45.55,28.25c0-8.11,6.63-13.45,15.48-13.45S76.5,20.14,76.5,28.25,69.87,41.7,61,41.7,45.55,36.36,45.55,28.25m20.63,0c0-8.35-1.29-13-5.16-13s-5.16,4.67-5.16,13,1.29,13,5.16,13S66.18,36.6,66.18,28.25Z" transform="translate(-1.15)" style="fill:#1b3f1f"/><path d="M81.29,40.53L81,32.36l0.25-.06c2.27,4.73,4.18,9,9.76,9,4.3,0,5-2.52,5-4,0-6.82-15-4-15-14.25,0-5.47,4.24-8.29,11.12-8.29,3.81,0,6.39.86,9.58,0.12L102,23.77l-0.25.06c-2-4.54-4.48-8.66-9.09-8.66-3.38,0-4.36,2.15-4.36,3.81,0,6.39,15.17,3.75,15.17,14,0,5.83-4.91,8.72-12,8.72a59.07,59.07,0,0,1-10.19-1.17" transform="translate(-1.15)" style="fill:#1b3f1f"/><path d="M107.57,28.31c0-7.43,5.71-13.51,14.62-13.51,7.86,0,12.9,4.79,13.2,12.28H117.58c0.06,8.11,3.19,13.08,8.78,13.08,4,0,6.76-2.58,8.6-4.79l0.31,0.25a15.38,15.38,0,0,1-12.9,6.08c-9.76,0-14.8-6.39-14.8-13.39m10-1.72h8.29c0-2.52.06-11.48-3.87-11.48C118.62,15.11,117.58,22,117.58,26.59Z" transform="translate(-1.15)" style="fill:#1b3f1f"/><path d="M138,40.65c3.32,0,3.68-2.09,3.68-5.16V6.76c0-3.07-.37-5.16-3.68-5.16V1.23L151.41,0V19.53c2.52-2.52,5.9-4.73,9.89-4.73,4.18,0,7.74,2.4,7.74,8.41V35.5c0,3.07.37,5.16,3.68,5.16V41H156.2V40.65c2.58,0,3.07-2.09,3.07-5.16V22.11c0-3-1.35-4.24-3.25-4.24a6.85,6.85,0,0,0-4.61,2.21V35.5c0,3.07.37,5.16,3.68,5.16V41H138V40.65" transform="translate(-1.15)" style="fill:#1b3f1f"/><path d="M174.5,40.65c3.32,0,3.68-2.09,3.68-5.16V21.56c0-3.07-.37-5.16-3.68-5.16V16L188,14.8V35.5c0,3.07.37,5.16,3.68,5.16V41H174.5V40.65m2.82-34.33a5.66,5.66,0,1,1,5.65,5.4A5.38,5.38,0,0,1,177.33,6.33Z" transform="translate(-1.15)" style="fill:#1b3f1f"/><path d="M193.11,40.65c3.32,0,3.68-2.09,3.68-5.16V6.76c0-3.07-.37-5.16-3.68-5.16V1.23L206.56,0V35.5c0,3.07.37,5.16,3.68,5.16V41H193.11V40.65" transform="translate(-1.15)" style="fill:#1b3f1f"/><path d="M211.71,40.65c3.32,0,3.68-2.09,3.68-5.16V6.76c0-3.07-.37-5.16-3.68-5.16V1.23L225.16,0V35.5c0,3.07.37,5.16,3.68,5.16V41H211.71V40.65" transform="translate(-1.15)" style="fill:#1b3f1f"/><path d="M39.68,70.51c1.55,0,2-.5,2-2.54v-10c0-2-.45-2.54-2-2.54V55.24h8.68c4.64,0,6.81,1.27,6.81,3.67s-1.9,3.69-6.56,3.69v0.1c5.09,0,7.09,1.5,7.09,3.84s-2,4.12-6.74,4.12H39.68V70.51m7.38-7.91c2.47,0,3.52-1.5,3.52-3.67,0-1.62-.57-3.52-2.82-3.52H46V62.6h1.07Zm0.72,7.88c2.45,0,3.32-2.07,3.32-4s-0.82-3.72-3.44-3.72H46v7.71h1.8Z" transform="translate(-1.15)" style="fill:#1b3f1f"/><path d="M57.44,65.47c0-3.29,2.69-5.46,6.29-5.46S70,62.18,70,65.47s-2.69,5.46-6.29,5.46-6.29-2.17-6.29-5.46m8.38,0c0-3.39-.52-5.29-2.09-5.29s-2.1,1.9-2.1,5.29,0.52,5.29,2.1,5.29S65.82,68.86,65.82,65.47Z" transform="translate(-1.15)" style="fill:#1b3f1f"/><path d="M72.13,62.6c-0.52-1-1.27-2.17-2.27-2.17V60.28h7.06v0.15c-1.22,0-1.22.82-.6,2.12l1.95,4,1.45-3.24-0.32-.72c-0.5-1-1-2.17-1.87-2.17V60.28h6.91v0.15c-1.25,0-1.4.85-.87,2.12l1.5,3.74,0.7-1.67a9.11,9.11,0,0,0,.87-3,1.13,1.13,0,0,0-1.32-1.22V60.28h4.52v0.15a2.9,2.9,0,0,0-2.47,1.4,15.07,15.07,0,0,0-1.42,2.92l-2.57,6h-0.1L79.86,63.6l-3.32,7.16h-0.1L72.13,62.6" transform="translate(-1.15)" style="fill:#1b3f1f"/><path d="M89.57,70.51c1.35,0,1.5-.85,1.5-2.1V56.74c0-1.25-.15-2.1-1.5-2.1V54.49L95,54V68.41c0,1.25.15,2.1,1.5,2.1v0.15h-7V70.51" transform="translate(-1.15)" style="fill:#1b3f1f"/><path d="M97.28,70.51c1.35,0,1.5-.85,1.5-2.1V62.75c0-1.25-.15-2.1-1.5-2.1V60.5l5.46-.5v8.41c0,1.25.15,2.1,1.5,2.1v0.15h-7V70.51m1.15-13.95a2.3,2.3,0,1,1,2.3,2.2A2.19,2.19,0,0,1,98.42,56.56Z" transform="translate(-1.15)" style="fill:#1b3f1f"/><path d="M105,70.51c1.35,0,1.5-.85,1.5-2.1V62.75c0-1.25-.15-2.1-1.5-2.1V60.5l5.34-.5v2a5.88,5.88,0,0,1,4.14-2c1.7,0,3.14,1,3.14,3.42v5c0,1.25.15,2.1,1.5,2.1v0.15h-6.71V70.51c1,0,1.25-.85,1.25-2.1V63c0-1.22-.55-1.72-1.32-1.72a2.78,2.78,0,0,0-1.87.9v6.26c0,1.25.2,2.1,1.25,2.1v0.15H105V70.51" transform="translate(-1.15)" style="fill:#1b3f1f"/><path d="M119.78,73c0-1.1,1.55-1.42,2.17-1.55a1.77,1.77,0,0,1-1.37-1.75c0-1.37,1.15-2.12,2.4-2.59a3.58,3.58,0,0,1-2.74-3.37c0-2.17,2-3.77,5.31-3.77a7.88,7.88,0,0,1,2.79.47c1.07-2.15,1.25-2.74,1.77-3.24a1.18,1.18,0,0,1,1.72.07,1.2,1.2,0,0,1-.05,1.72,13,13,0,0,1-3.29,1.52,3.51,3.51,0,0,1,2.37,3.22c0,2.15-2,3.77-5.31,3.77a8,8,0,0,1-2.45-.35,0.93,0.93,0,0,0-.57.72c0,1.7,9.08-1.17,9.08,3.54,0,2.17-1.9,3.54-6.41,3.54-3,0-5.41-.62-5.41-2m9.63,0c0-1.92-4.82-.77-7.34-1.55a1.45,1.45,0,0,0-.45,1.15c0,1.25.77,2.22,3.84,2.22C128.93,74.88,129.41,73.65,129.41,73.05Zm-5.31-9.28c0,2.2.4,3.64,1.45,3.64S127,66,127,63.77s-0.4-3.64-1.45-3.64S124.09,61.58,124.09,63.77Z" transform="translate(-1.15)" style="fill:#1b3f1f"/><path d="M138.24,63.07c0-5,3.77-8.13,9.16-8.13,2.2,0,4,.52,5.84.05l0.45,5.44-0.12,0c-1.55-3.92-3.57-5.36-5.79-5.36-3.74,0-4.89,4-4.89,7.81s1.15,7.91,4.79,7.91c2.84,0,4.91-2.52,6.24-5.79l0.1,0-0.85,5.16a21.25,21.25,0,0,1-5.49.75c-6.36,0-9.43-3.42-9.43-7.88" transform="translate(-1.15)" style="fill:#1b3f1f"/><path d="M155.08,70.51c1.35,0,1.5-.85,1.5-2.1V56.74c0-1.25-.15-2.1-1.5-2.1V54.49l5.46-.5V68.41c0,1.25.15,2.1,1.5,2.1v0.15h-7V70.51" transform="translate(-1.15)" style="fill:#1b3f1f"/><path d="M164.08,67.52V62.85c0-1.25-.15-2.17-1.5-2.17V60.53L168,60V68c0,1.22.55,1.72,1.32,1.72a2.78,2.78,0,0,0,1.87-.9V62.85c0-1.25-.2-2.17-1.25-2.17V60.53l5.21-.5v8.31c0,1.25.15,2.17,1.5,2.17v0.15h-5.34V68.89a5.88,5.88,0,0,1-4.14,2c-1.7,0-3.14-1-3.14-3.42" transform="translate(-1.15)" style="fill:#1b3f1f"/><path d="M181.77,70.11l-3.12.8-0.08,0V56.74c0-1.25-.15-2.1-1.5-2.1V54.49l5.46-.5v7.68A4.39,4.39,0,0,1,186,60c3,0,4.34,2.72,4.34,5.36,0,3-1.75,5.56-5.66,5.56a4.45,4.45,0,0,1-2.89-.82m4.42-4.47c0-2.54-.55-4.59-2.07-4.59a2.1,2.1,0,0,0-1.57.82v7.53a1.34,1.34,0,0,0,1.37,1.35C185.76,70.76,186.18,67.86,186.18,65.64Z" transform="translate(-1.15)" style="fill:#1b3f1f"/><rect x="7.65" y="62.46" width="26.91" height="1.01" style="fill:#1b3f1f"/><rect x="193.14" y="62.46" width="26.91" height="1.01" style="fill:#1b3f1f"/></svg>