<svg xmlns="http://www.w3.org/2000/svg" width="208" height="52.94" viewBox="0 0 208 52.94"><title>opening-hours</title><path d="M42,31a11,11,0,1,0,11,11A11,11,0,0,0,42,31Zm0,20.08A9.13,9.13,0,1,1,51.11,42,9.14,9.14,0,0,1,42,51.11Z" style="fill:#1b381f"/><path d="M47.46,41.07H42.9V36.51a0.91,0.91,0,1,0-1.83,0V42a0.91,0.91,0,0,0,.91.91h5.48A0.91,0.91,0,1,0,47.46,41.07Z" style="fill:#1b381f"/><path d="M24.64,19.17H6.39V45.64H24.64V29.21H41.07v-10H24.64Zm-10,24.64H8.21V37.42H14.6v6.39Zm0-8.21H8.21V29.21H14.6V35.6Zm0-8.21H8.21V21H14.6v6.39Zm8.21,16.43H16.43V37.42h6.39v6.39Zm0-8.21H16.43V29.21h6.39V35.6Zm0-8.21H16.43V21h6.39v6.39Zm8.21,0H24.64V21H31v6.39ZM32.86,21h6.39v6.39H32.86V21Z" style="fill:#1b381f"/><path d="M30.12,50.2H1.83V14.6H45.64V26.47a0.91,0.91,0,1,0,1.83,0V4.56a0.91,0.91,0,0,0-.91-0.91H42V0.91A0.91,0.91,0,0,0,41.07,0H34.68a0.91,0.91,0,0,0-.91.91V3.65H13.69V0.91A0.91,0.91,0,0,0,12.78,0H6.39a0.91,0.91,0,0,0-.91.91V3.65H0.91A0.91,0.91,0,0,0,0,4.56V51.11A0.91,0.91,0,0,0,.91,52H30.12A0.91,0.91,0,0,0,30.12,50.2ZM35.6,4.56V1.83h4.56V7.3H35.6V4.56ZM7.3,4.56V1.83h4.56V7.3H7.3V4.56Zm-5.48.91H5.48V8.21a0.91,0.91,0,0,0,.91.91h6.39a0.91,0.91,0,0,0,.91-0.91V5.48H33.77V8.21a0.91,0.91,0,0,0,.91.91h6.39A0.91,0.91,0,0,0,42,8.21V5.48h3.65v7.3H1.83V5.48Z" style="fill:#1b381f"/><path d="M76.93,4.36a10.09,10.09,0,0,0-7.34,2.9,9.68,9.68,0,0,0-3,7.22,9.68,9.68,0,0,0,3,7.22,10.73,10.73,0,0,0,14.67,0,9.69,9.69,0,0,0,3-7.22,9.69,9.69,0,0,0-3-7.22A10.09,10.09,0,0,0,76.93,4.36Zm4.91,15.15a6.86,6.86,0,0,1-9.83,0,7,7,0,0,1-2-5,7,7,0,0,1,2-5,6.86,6.86,0,0,1,9.83,0,7,7,0,0,1,2,5A7,7,0,0,1,81.85,19.51Zm14-.84H99.3q4.31,0,6.4-1.65t2.09-5.21a6.47,6.47,0,0,0-2-5.26q-2-1.71-6.5-1.71H92.53V24.41h3.3V18.67Zm0-10.84h3.36a7.26,7.26,0,0,1,3.95.84,3.19,3.19,0,0,1,1.26,2.87,4.32,4.32,0,0,1-1,3.08q-1,1.05-3.74,1H95.83V7.84ZM126.88,21.3H116.1V16.07h9.38V13.13H116.1V7.95h10.44V4.84H112.8V24.41h14.08V21.3Zm23.32,3.11V4.84h-3.3V19.46L135.54,4.84h-3.3V24.41h3.3V10.13l11.09,14.28h3.58Zm9.86-19.57h-3.3V24.41h3.3V4.84Zm21.22,14.62L169.92,4.84h-3.3V24.41h3.3V10.13L181,24.41h3.58V4.84h-3.3V19.46Zm23.41-4.56v5.38a8.46,8.46,0,0,1-4.66,1.2,6.59,6.59,0,0,1-6.71-6.9,6.64,6.64,0,0,1,2-5,7,7,0,0,1,5-1.92A8.75,8.75,0,0,1,203,8a6.88,6.88,0,0,1,2.31,1.36l1.76-2.52a10.25,10.25,0,0,0-7-2.46,9.94,9.94,0,0,0-7.21,2.91,9.76,9.76,0,0,0-3,7.28,9.67,9.67,0,0,0,2.93,7.22,10,10,0,0,0,7.27,2.86q5.15,0,7.92-3.05V14.89h-3.3ZM80.91,37.32H71.19V28.84h-3.3V48.41h3.3v-8h9.72v8h3.3V28.84h-3.3v8.48Zm18.9-9a10.09,10.09,0,0,0-7.34,2.9,9.68,9.68,0,0,0-3,7.22,9.68,9.68,0,0,0,3,7.22,10.73,10.73,0,0,0,14.67,0,9.69,9.69,0,0,0,3-7.22,9.69,9.69,0,0,0-3-7.22A10.09,10.09,0,0,0,99.81,28.36Zm4.91,15.15a6.86,6.86,0,0,1-9.83,0,7.31,7.31,0,0,1,0-10.05,6.86,6.86,0,0,1,9.83,0A7.31,7.31,0,0,1,104.72,43.51Zm23.7-3.84a6.32,6.32,0,0,1-1.34,4.26,5,5,0,0,1-7.28,0,6.32,6.32,0,0,1-1.34-4.26V28.84h-3.3v11a8.71,8.71,0,0,0,2.32,6.51,8.93,8.93,0,0,0,11.93,0,8.71,8.71,0,0,0,2.32-6.51v-11h-3.3V39.68Zm25.23-4.48q0-3.33-1.93-4.84t-6.41-1.51H138V48.41h3.3V41.83h4.34l4.68,6.58h4.2l-5.12-7.11Q153.65,40,153.65,35.2Zm-8.2,3.64h-4.12v-7h4.2a6.89,6.89,0,0,1,3.7.71,3,3,0,0,1,1,2.63,3.49,3.49,0,0,1-1,2.79Q148.25,38.84,145.45,38.84ZM167,37a14,14,0,0,1-3.93-1.36,2.07,2.07,0,0,1-.92-1.82,2,2,0,0,1,.92-1.78,4.34,4.34,0,0,1,2.37-.59,9.06,9.06,0,0,1,2.93.5,6.68,6.68,0,0,1,2.35,1.29l1.76-2.49A9.74,9.74,0,0,0,169.3,29a11.72,11.72,0,0,0-3.72-.62,8,8,0,0,0-4.89,1.47,4.91,4.91,0,0,0-2,4.19,4.73,4.73,0,0,0,1.74,4,7.39,7.39,0,0,0,2,1.13,27.22,27.22,0,0,0,3.28,1,9.28,9.28,0,0,1,3,1.15,2,2,0,0,1,.88,1.76,2.15,2.15,0,0,1-.94,1.82,4.2,4.2,0,0,1-2.53.69A9.33,9.33,0,0,1,160,43l-2.07,2.49a11.9,11.9,0,0,0,8.15,3.16,7.7,7.7,0,0,0,5.07-1.6,5.14,5.14,0,0,0,1.93-4.16A4.84,4.84,0,0,0,171.56,39,10.82,10.82,0,0,0,167,37Z" style="fill:#1b381f"/></svg>